<svg width="14" height="14" viewBox="0 0 14 14" fill="none" xmlns="http://www.w3.org/2000/svg">
<path d="M12.3742 2.6272C12.2041 2.6272 12.041 2.6964 11.9207 2.81957C11.8004 2.94274 11.7328 3.1098 11.7328 3.284V9.85199C11.7328 10.3746 11.5301 10.8758 11.1692 11.2453C10.8084 11.6148 10.3189 11.8224 9.80859 11.8224H3.39453C3.22442 11.8224 3.06127 11.8916 2.94099 12.0148C2.8207 12.1379 2.75312 12.305 2.75312 12.4792C2.75312 12.6534 2.8207 12.8204 2.94099 12.9436C3.06127 13.0668 3.22442 13.136 3.39453 13.136H9.80859C10.6591 13.136 11.4749 12.79 12.0763 12.1741C12.6777 11.5583 13.0156 10.723 13.0156 9.85199V3.284C13.0156 3.1098 12.948 2.94274 12.8278 2.81957C12.7075 2.6964 12.5443 2.6272 12.3742 2.6272ZM10.45 8.53839V1.9704C10.45 1.44782 10.2473 0.946638 9.8864 0.577117C9.52554 0.207595 9.03611 0 8.52578 0H2.11172C1.60138 0 1.11195 0.207595 0.75109 0.577117C0.39023 0.946638 0.1875 1.44782 0.1875 1.9704V8.53839C0.1875 9.06098 0.39023 9.56216 0.75109 9.93168C1.11195 10.3012 1.60138 10.5088 2.11172 10.5088H8.52578C9.03611 10.5088 9.52554 10.3012 9.8864 9.93168C10.2473 9.56216 10.45 9.06098 10.45 8.53839ZM5.31875 1.3136H6.60156V4.50565L6.37065 4.30861C6.2554 4.2103 6.11015 4.15647 5.96015 4.15647C5.81016 4.15647 5.66491 4.2103 5.54965 4.30861L5.31875 4.50565V1.3136ZM1.47031 8.53839V1.9704C1.47031 1.7962 1.53789 1.62915 1.65818 1.50597C1.77846 1.3828 1.94161 1.3136 2.11172 1.3136H4.03594V5.9112C4.03593 6.03675 4.07106 6.15968 4.13718 6.26542C4.2033 6.37116 4.29763 6.45527 4.409 6.5078C4.52037 6.56033 4.64411 6.57907 4.76556 6.5618C4.88701 6.54453 5.00108 6.49198 5.09425 6.41036L5.96015 5.66818L6.82605 6.41036C6.94224 6.51211 7.09009 6.56801 7.24296 6.568C7.33576 6.56732 7.42744 6.54721 7.51236 6.50888C7.62369 6.45612 7.71791 6.37177 7.78385 6.26584C7.84979 6.1599 7.88467 6.03682 7.88437 5.9112V1.3136H8.52578C8.69589 1.3136 8.85903 1.3828 8.97932 1.50597C9.09961 1.62915 9.16718 1.7962 9.16718 1.9704V8.53839C9.16718 8.71259 9.09961 8.87965 8.97932 9.00282C8.85903 9.126 8.69589 9.19519 8.52578 9.19519H2.11172C1.94161 9.19519 1.77846 9.126 1.65818 9.00282C1.53789 8.87965 1.47031 8.71259 1.47031 8.53839Z" fill="#B793FF"/>
</svg>
